name Run_200 02_newCOP3_v24.mot
datacolumns 19
datarows 105
range 1.45 1.554
DataType=double
version=3
OpenSimVersion=4.3-2021-08-27-4bc7ad9
endheader
time	R_ground_force_vx	R_ground_force_vy	R_ground_force_vz	R_ground_force_px	R_ground_force_py	R_ground_force_pz	L_ground_force_vx	L_ground_force_vy	L_ground_force_vz	L_ground_force_px	L_ground_force_py	L_ground_force_pz	R_ground_torque_x	R_ground_torque_y	R_ground_torque_z	L_ground_torque_x	L_ground_torque_y	L_ground_torque_z
1.45	16.782656	600.589355	22.462044	0.77273	0	-0.269924	0	0	0	0	0	0	0	-1.257716	0	0	0	0
1.451	15.377558	619.380737	22.99143	0.772645	0	-0.269907	0	0	0	0	0	0	0	-1.290095	0	0	0	0
1.452	13.649538	637.511169	23.389305	0.772549	0	-0.269886	0	0	0	0	0	0	0	-1.321877	0	0	0	0
1.453	11.608168	654.929871	23.650259	0.772442	0	-0.26986	0	0	0	0	0	0	0	-1.353457	0	0	0	0
1.454	9.266601	671.594788	23.770765	0.772324	0	-0.26983	0	0	0	0	0	0	0	-1.385142	0	0	0	0
1.455	6.64121	687.473694	23.749125	0.772196	0	-0.269795	0	0	0	0	0	0	0	-1.417151	0	0	0	0
1.456	3.751166	702.544128	23.585337	0.772056	0	-0.269757	0	0	0	0	0	0	0	-1.449618	0	0	0	0
1.457	0.617998	716.793762	23.280931	0.771904	0	-0.269715	0	0	0	0	0	0	0	-1.482596	0	0	0	0
1.458	-2.734863	730.220398	22.838776	0.77174	0	-0.269668	0	0	0	0	0	0	0	-1.516059	0	0	0	0
1.459	-6.282523	742.831787	22.262869	0.771563	0	-0.269619	0	0	0	0	0	0	0	-1.549908	0	0	0	0
1.46	-9.999040000000001	754.645203	21.558123	0.771371	0	-0.269565	0	0	0	0	0	0	0	-1.583981	0	0	0	0
1.461	-13.857795	765.6868899999999	20.730173	0.771163	0	-0.269508	0	0	0	0	0	0	0	-1.618054	0	0	0	0
1.462	-17.831818	775.991455	19.785204	0.770938	0	-0.269446	0	0	0	0	0	0	0	-1.651854	0	0	0	0
1.463	-21.894072	785.6007080000001	18.729799	0.770694	0	-0.269381	0	0	0	0	0	0	0	-1.685064	0	0	0	0
1.464	-26.017668	794.5631100000001	17.570831	0.7704299999999999	0	-0.269313	0	0	0	0	0	0	0	-1.717334	0	0	0	0
1.465	-30.176079	802.932312	16.31538	0.7701440000000001	0	-0.26924	0	0	0	0	0	0	0	-1.748285	0	0	0	0
1.466	-34.343277	810.766296	14.970692	0.769835	0	-0.269163	0	0	0	0	0	0	0	-1.777524	0	0	0	0
1.467	-38.493896	818.1262819999999	13.544155	0.769501	0	-0.269082	0	0	0	0	0	0	0	-1.804645	0	0	0	0
1.468	-42.603355	825.075378	12.043312	0.76914	0	-0.268996	0	0	0	0	0	0	0	-1.829242	0	0	0	0
1.469	-46.648003	831.6779790000001	10.475871	0.76875	0	-0.268907	0	0	0	0	0	0	0	-1.850915	0	0	0	0
1.47	-50.60527	837.998291	8.849742000000001	0.768331	0	-0.268813	0	0	0	0	0	0	0	-1.869277	0	0	0	0
1.471	-54.453831	844.099792	7.173064	0.76788	0	-0.268714	0	0	0	0	0	0	0	-1.88396	0	0	0	0
1.472	-58.173779	850.044067	5.454232	0.767397	0	-0.268611	0	0	0	0	0	0	0	-1.894621	0	0	0	0
1.473	-61.746838	855.890259	3.701912	0.76688	0	-0.268503	0	0	0	0	0	0	0	-1.900948	0	0	0	0
1.474	-65.156548	861.694397	1.925035	0.766328	0	-0.268391	0	0	0	0	0	0	0	-1.902663	0	0	0	0
1.475	-68.38846599999999	867.5086669999999	0.132781	0.765741	0	-0.268274	0	0	0	0	0	0	0	-1.899528	0	0	0	0
1.476	-71.430374	873.3811040000001	-1.665473	0.765117	0	-0.268152	0	0	0	0	0	0	0	-1.891344	0	0	0	0
1.477	-74.272415	879.35498	-3.460216	0.764456	0	-0.268026	0	0	0	0	0	0	0	-1.877957	0	0	0	0
1.478	-76.907211	885.468872	-5.241898	0.763758	0	-0.267896	0	0	0	0	0	0	0	-1.859259	0	0	0	0
1.479	-79.32997899999999	891.756165	-7.001044	0.763022	0	-0.267761	0	0	0	0	0	0	0	-1.835187	0	0	0	0
1.48	-81.538528	898.244995	-8.728391	0.76225	0	-0.267621	0	0	0	0	0	0	0	-1.805722	0	0	0	0
1.481	-83.533203	904.958435	-10.415034	0.761441	0	-0.267478	0	0	0	0	0	0	0	-1.770893	0	0	0	0
1.482	-85.316841	911.914246	-12.052595	0.760597	0	-0.267331	0	0	0	0	0	0	0	-1.73077	0	0	0	0
1.483	-86.89456199999999	919.125366	-13.633381	0.759717	0	-0.26718	0	0	0	0	0	0	0	-1.685468	0	0	0	0
1.484	-88.273567	926.599731	-15.150554	0.758804	0	-0.267025	0	0	0	0	0	0	0	-1.635141	0	0	0	0
1.485	-89.462875	934.340759	-16.598284	0.757858	0	-0.266867	0	0	0	0	0	0	0	-1.579978	0	0	0	0
1.486	-90.473015	942.347717	-17.971897	0.756881	0	-0.266707	0	0	0	0	0	0	0	-1.520205	0	0	0	0
1.487	-91.315659	950.615662	-19.267982	0.755874	0	-0.266544	0	0	0	0	0	0	0	-1.456076	0	0	0	0
1.488	-92.00329600000001	959.136169	-20.484495	0.75484	0	-0.266378	0	0	0	0	0	0	0	-1.387875	0	0	0	0
1.489	-92.54884300000001	967.897461	-21.620808	0.75378	0	-0.266211	0	0	0	0	0	0	0	-1.315907	0	0	0	0
1.49	-92.96528600000001	976.8847050000001	-22.677732	0.752696	0	-0.266043	0	0	0	0	0	0	0	-1.240496	0	0	0	0
1.491	-93.265327	986.080627	-23.657503	0.75159	0	-0.265873	0	0	0	0	0	0	0	-1.161983	0	0	0	0
1.492	-93.46109	995.465637	-24.563717	0.750464	0	-0.265702	0	0	0	0	0	0	0	-1.08072	0	0	0	0
1.493	-93.56385	1005.01825	-25.401241	0.749321	0	-0.265531	0	0	0	0	0	0	0	-0.997064	0	0	0	0
1.494	-93.58380099999999	1014.715637	-26.176073	0.748162	0	-0.26536	0	0	0	0	0	0	0	-0.9113790000000001	0	0	0	0
1.495	-93.529922	1024.533691	-26.895176	0.74699	0	-0.265189	0	0	0	0	0	0	0	-0.824026	0	0	0	0
1.496	-93.409859	1034.447632	-27.566294	0.745806	0	-0.265019	0	0	0	0	0	0	0	-0.735365	0	0	0	0
1.497	-93.229927	1044.432495	-28.197727	0.7446120000000001	0	-0.264849	0	0	0	0	0	0	0	-0.645746	0	0	0	0
1.498	-92.99511699999999	1054.463135	-28.798115	0.743411	0	-0.264681	0	0	0	0	0	0	0	-0.555514	0	0	0	0
1.499	-92.70921300000001	1064.514893	-29.376188	0.7422029999999999	0	-0.264514	0	0	0	0	0	0	0	-0.464996	0	0	0	0
1.5	-92.374939	1074.563843	-29.940546	0.740991	0	-0.264348	0	0	0	0	0	0	0	-0.374507	0	0	0	0
1.501	-91.99411000000001	1084.586914	-30.499426	0.739775	0	-0.264185	0	0	0	0	0	0	0	-0.284347	0	0	0	0
1.502	-91.567886	1094.562622	-31.060488	0.738558	0	-0.264023	0	0	0	0	0	0	0	-0.194793	0	0	0	0
1.503	-91.096954	1104.470703	-31.630629	0.73734	0	-0.263863	0	0	0	0	0	0	0	-0.106105	0	0	0	0
1.504	-90.58178700000001	1114.292725	-32.215809	0.7361220000000001	0	-0.263705	0	0	0	0	0	0	0	-0.018522	0	0	0	0
1.505	-90.02280399999999	1124.011841	-32.820923	0.734905	0	-0.26355	0	0	0	0	0	0	-0	0.067743	-0	0	0	0
1.506	-89.420586	1133.613159	-33.449711	0.733691	0	-0.263396	0	0	0	0	0	0	-0	0.152494	-0	0	0	0
1.507	-88.77597799999999	1143.083374	-34.104675	0.732479	0	-0.263245	0	0	0	0	0	0	-0	0.235561	-0	0	0	0
1.508	-88.090233	1152.411133	-34.787083	0.73127	0	-0.263096	0	0	0	0	0	0	-0	0.316795	-0	0	0	0
1.509	-87.365013	1161.58667	-35.496979	0.730064	0	-0.262949	0	0	0	0	0	0	-0	0.396071	-0	0	0	0
1.51	-86.60245500000001	1170.601563	-36.233246	0.728863	0	-0.262804	0	0	0	0	0	0	-0	0.473283	-0	0	0	0
1.511	-85.80508399999999	1179.449219	-36.993702	0.727665	0	-0.262661	0	0	0	0	0	0	-0	0.548346	-0	0	0	0
1.512	-84.975784	1188.123779	-37.775246	0.726471	0	-0.26252	0	0	0	0	0	0	-0	0.621197	-0	0	0	0
1.513	-84.117722	1196.621094	-38.574013	0.725281	0	-0.262381	0	0	0	0	0	0	-0	0.691788	-0	0	0	0
1.514	-83.234222	1204.9375	-39.385563	0.724095	0	-0.262244	0	0	0	0	0	0	-0	0.76009	-0	0	0	0
1.515	-82.328659	1213.070313	-40.205086	0.722913	0	-0.262108	0	0	0	0	0	0	-0	0.826089	-0	0	0	0
1.516	-81.404388	1221.017944	-41.027618	0.721733	0	-0.261973	0	0	0	0	0	0	-0	0.889783	-0	0	0	0
1.517	-80.46463799999999	1228.778809	-41.848255	0.720557	0	-0.26184	0	0	0	0	0	0	-0	0.951186	-0	0	0	0
1.518	-79.512444	1236.352173	-42.662338	0.719384	0	-0.261708	0	0	0	0	0	0	-0	1.010319	-0	0	0	0
1.519	-78.55062100000001	1243.737671	-43.465649	0.718213	0	-0.261577	0	0	0	0	0	0	-0	1.067212	-0	0	0	0
1.52	-77.58168000000001	1250.935059	-44.254562	0.717044	0	-0.261448	0	0	0	0	0	0	-0	1.121904	-0	0	0	0
1.521	-76.607895	1257.944214	-45.026165	0.715876	0	-0.261319	0	0	0	0	0	0	-0	1.174436	-0	0	0	0
1.522	-75.63123299999999	1264.765259	-45.778332	0.71471	0	-0.261191	0	0	0	0	0	0	-0	1.224856	-0	0	0	0
1.523	-74.65342699999999	1271.397949	-46.509754	0.713544	0	-0.261064	0	0	0	0	0	0	-0	1.27321	-0	0	0	0
1.524	-73.675957	1277.842407	-47.219959	0.712379	0	-0.260937	0	0	0	0	0	0	-0	1.319547	-0	0	0	0
1.525	-72.700073	1284.098022	-47.909233	0.711213	0	-0.260811	0	0	0	0	0	0	-0	1.363913	-0	0	0	0
1.526	-71.726845	1290.164307	-48.578541	0.710047	0	-0.260686	0	0	0	0	0	0	-0	1.406352	-0	0	0	0
1.527	-70.75711099999999	1296.040283	-49.229404	0.70888	0	-0.260561	0	0	0	0	0	0	-0	1.446904	-0	0	0	0
1.528	-69.791527	1301.724609	-49.863754	0.707712	0	-0.260437	0	0	0	0	0	0	-0	1.485604	-0	0	0	0
1.529	-68.830528	1307.215698	-50.483768	0.706541	0	-0.260313	0	0	0	0	0	0	-0	1.52248	-0	0	0	0
1.53	-67.874313	1312.511597	-51.091694	0.705369	0	-0.260189	0	0	0	0	0	0	-0	1.557552	-0	0	0	0
1.531	-66.92282899999999	1317.609619	-51.689682	0.704194	0	-0.260066	0	0	0	0	0	0	-0	1.590835	-0	0	0	0
1.532	-65.97576100000001	1322.506958	-52.279633	0.703016	0	-0.259944	0	0	0	0	0	0	-0	1.622334	-0	0	0	0
1.533	-65.032478	1327.200562	-52.863052	0.701836	0	-0.259821	0	0	0	0	0	0	-0	1.652043	-0	0	0	0
1.534	-64.092079	1331.686523	-53.440964	0.7006520000000001	0	-0.2597	0	0	0	0	0	0	-0	1.679951	-0	0	0	0
1.535	-63.153355	1335.96106	-54.013809	0.699464	0	-0.259578	0	0	0	0	0	0	-0	1.706035	-0	0	0	0
1.536	-62.214825	1340.020142	-54.581421	0.698273	0	-0.259458	0	0	0	0	0	0	-0	1.730262	-0	0	0	0
1.537	-61.274776	1343.859253	-55.143009	0.697078	0	-0.259338	0	0	0	0	0	0	-0	1.752593	-0	0	0	0
1.538	-60.331322	1347.473999	-55.697205	0.695878	0	-0.259218	0	0	0	0	0	0	-0	1.772978	-0	0	0	0
1.539	-59.382454	1350.859985	-56.2421	0.694675	0	-0.259099	0	0	0	0	0	0	-0	1.791359	-0	0	0	0
1.54	-58.426121	1354.012695	-56.775341	0.6934669999999999	0	-0.25898	0	0	0	0	0	0	-0	1.807671	-0	0	0	0
1.541	-57.460312	1356.927979	-57.294235	0.692255	0	-0.258862	0	0	0	0	0	0	-0	1.821841	-0	0	0	0
1.542	-56.483128	1359.601929	-57.795872	0.691038	0	-0.258745	0	0	0	0	0	0	-0	1.833792	-0	0	0	0
1.543	-55.492836	1362.031006	-58.277229	0.689817	0	-0.258628	0	0	0	0	0	0	-0	1.84344	-0	0	0	0
1.544	-54.487946	1364.212036	-58.735298	0.688591	0	-0.258513	0	0	0	0	0	0	-0	1.850697	-0	0	0	0
1.545	-53.467247	1366.1427	-59.167206	0.687361	0	-0.258397	0	0	0	0	0	0	-0	1.855474	-0	0	0	0
1.546	-52.42981	1367.820923	-59.570301	0.686126	0	-0.258283	0	0	0	0	0	0	-0	1.857678	-0	0	0	0
1.547	-51.375019	1369.245483	-59.94223	0.684887	0	-0.258169	0	0	0	0	0	0	-0	1.857217	-0	0	0	0
1.548	-50.302544	1370.415771	-60.281025	0.683644	0	-0.258056	0	0	0	0	0	0	-0	1.854	-0	0	0	0
1.549	-49.212311	1371.332153	-60.585121	0.682397	0	-0.257944	0	0	0	0	0	0	-0	1.847936	-0	0	0	0
1.55	-48.104485	1371.995239	-60.853382	0.681145	0	-0.257833	0	0	0	0	0	0	-0	1.838939	-0	0	0	0
1.551	-46.979408	1372.406738	-61.085133	0.67989	0	-0.257722	0	0	0	0	0	0	-0	1.826928	-0	0	0	0
1.552	-45.837574	1372.568726	-61.280128	0.678631	0	-0.257612	0	0	0	0	0	0	-0	1.811827	-0	0	0	0
1.553	-44.679577	1372.484009	-61.438541	0.677368	0	-0.257503	0	0	0	0	0	0	-0	1.793567	-0	0	0	0
1.554	-43.506081	1372.155762	-61.56094	0.676103	0	-0.257395	0	0	0	0	0	0	-0	1.772088	-0	0	0	0
